<?xml version="1.0" encoding="utf-8"?>
<!-- Generator: Adobe Illustrator 17.0.0, SVG Export Plug-In . SVG Version: 6.00 Build 0)  -->
<!DOCTYPE svg PUBLIC "-//W3C//DTD SVG 1.1 Tiny//EN" "http://www.w3.org/Graphics/SVG/1.1/DTD/svg11-tiny.dtd">
<svg version="1.1" baseProfile="tiny" id="Layer_1" xmlns="http://www.w3.org/2000/svg" xmlns:xlink="http://www.w3.org/1999/xlink"
	 x="0px" y="0px" width="492.227px" height="235.268px" viewBox="0 0 492.227 235.268" overflow="scroll" xml:space="preserve">
<g id="Layer_3" display="none">
	<rect x="0" y="-4.244" display="inline" fill="#2F90B2" width="500" height="367.038"/>
</g>
<g id="Text">
	<g>
		<path fill="#FFFFFF" d="M128.372,50.674l-30.658,89.418h-0.912c-0.547,0-0.912-0.304-1.095-0.912l-28.65-83.214
			c-0.365-0.972-0.639-1.855-0.821-2.646c-0.183,0.791-0.456,1.674-0.821,2.646L36.399,139.18c-0.182,0.609-0.487,0.912-0.912,0.912
			h-0.912L3.916,50.674h1.278c0.486,0,0.851,0.137,1.095,0.411c0.242,0.274,0.425,0.563,0.547,0.866l27.373,81.937
			c0.242,0.67,0.47,1.323,0.684,1.961c0.212,0.639,0.379,1.293,0.502,1.962c0.121-0.669,0.288-1.323,0.502-1.962
			c0.212-0.639,0.44-1.291,0.684-1.961L65.05,51.039c0.182-0.607,0.486-0.912,0.912-0.912h0.547c0.425,0,0.73,0.305,0.912,0.912
			l28.285,82.849c0.486,1.338,0.851,2.555,1.095,3.65c0.183-0.608,0.379-1.2,0.593-1.779c0.212-0.577,0.44-1.2,0.684-1.87
			l27.373-81.937c0.425-0.851,0.972-1.277,1.642-1.277H128.372z"/>
		<path fill="#FFFFFF" d="M147.624,63.448c4.379-4.622,8.91-8.151,13.595-10.584c4.683-2.432,10.128-3.65,16.332-3.65
			c4.562,0,8.5,0.73,11.816,2.19c3.315,1.46,6.067,3.559,8.257,6.296c2.19,2.737,3.801,6.067,4.836,9.991
			c1.034,3.923,1.551,8.348,1.551,13.276v59.126h-0.365c-0.853,0-1.278-0.486-1.278-1.46l-0.547-14.599
			c-2.555,2.678-5.109,5.096-7.665,7.254c-2.555,2.16-5.262,4-8.121,5.52c-2.86,1.522-5.931,2.692-9.215,3.513
			c-3.285,0.821-6.935,1.232-10.949,1.232c-2.677,0-5.383-0.411-8.121-1.232c-2.737-0.821-5.201-2.128-7.39-3.923
			c-2.19-1.794-3.985-4.106-5.384-6.935c-1.4-2.828-2.098-6.28-2.098-10.356c0-4.014,1.186-7.619,3.558-10.812
			c2.373-3.194,5.976-5.915,10.813-8.166c4.836-2.25,10.949-4.029,18.34-5.338c7.391-1.307,16.135-2.083,26.232-2.327V80.967
			c0-4.683-0.518-8.88-1.551-12.591c-1.035-3.71-2.555-6.843-4.562-9.398c-2.007-2.555-4.532-4.517-7.573-5.885
			c-3.043-1.369-6.57-2.053-10.585-2.053c-3.163,0-6.022,0.335-8.576,1.004c-2.555,0.67-4.836,1.491-6.843,2.464
			c-2.007,0.974-3.757,2.039-5.246,3.193c-1.492,1.156-2.783,2.221-3.878,3.194c-1.095,0.974-1.977,1.795-2.646,2.463
			c-0.67,0.67-1.157,1.004-1.46,1.004c-0.244,0-0.547-0.183-0.912-0.547L147.624,63.448z M201.822,94.289
			c-19.161,0.609-33.411,2.997-42.748,7.162c-9.338,4.167-14.006,10.053-14.006,17.656c0,3.59,0.593,6.677,1.779,9.261
			c1.187,2.586,2.752,4.715,4.699,6.387c1.946,1.674,4.166,2.92,6.661,3.741c2.493,0.821,5.048,1.232,7.664,1.232
			c4.198,0,7.998-0.486,11.406-1.46c3.406-0.972,6.554-2.281,9.443-3.923c2.889-1.642,5.566-3.543,8.029-5.703
			c2.464-2.158,4.82-4.425,7.071-6.798V94.289z"/>
		<path fill="#FFFFFF" d="M239.961,8.702v131.391h-2.19V8.702H239.961z"/>
		<path fill="#FFFFFF" d="M276.821,8.702v82.484h4.198c0.547,0,1.185-0.06,1.916-0.183c0.73-0.121,1.551-0.607,2.464-1.46
			l42.519-37.41c0.487-0.486,0.972-0.851,1.46-1.095c0.486-0.242,1.095-0.365,1.825-0.365h1.642l-45.256,39.599
			c-0.791,0.73-1.552,1.248-2.281,1.551c0.851,0.244,1.581,0.563,2.19,0.958c0.607,0.396,1.187,0.837,1.734,1.323l47.264,45.987
			h-1.642c-0.488,0-0.913-0.06-1.278-0.183c-0.364-0.121-0.79-0.424-1.277-0.912l-44.892-43.614
			c-1.095-0.972-2.068-1.642-2.919-2.007c-0.852-0.365-2.19-0.547-4.014-0.547h-3.65v47.264h-2.19V8.702H276.821z"/>
		<path fill="#FFFFFF" d="M414.964,129.508c-1.035,1.277-2.57,2.6-4.608,3.969c-2.039,1.369-4.442,2.631-7.209,3.787
			c-2.768,1.156-5.793,2.098-9.078,2.828c-3.285,0.73-6.661,1.095-10.128,1.095c-6.145,0-11.649-1.081-16.515-3.239
			c-4.868-2.158-8.988-5.277-12.364-9.352c-3.375-4.075-5.976-9.063-7.801-14.964c-1.825-5.9-2.737-12.592-2.737-20.074
			c0-6.569,0.881-12.576,2.646-18.02c1.764-5.443,4.319-10.112,7.665-14.006c3.344-3.892,7.437-6.919,12.272-9.079
			c4.836-2.158,10.324-3.24,16.469-3.24c4.683,0,9.093,0.837,13.231,2.509c4.136,1.674,7.74,4.151,10.812,7.436
			c3.071,3.285,5.489,7.315,7.254,12.09c1.764,4.776,2.647,10.265,2.647,16.469c0,0.305-0.108,0.533-0.32,0.684
			c-0.214,0.153-0.472,0.228-0.775,0.228h-69.528c-0.061,0.852-0.107,1.673-0.136,2.463c-0.032,0.791-0.046,1.613-0.046,2.464
			c0,7.422,0.881,13.976,2.646,19.663c1.764,5.688,4.273,10.463,7.528,14.325c3.253,3.864,7.177,6.798,11.77,8.805
			c4.593,2.007,9.686,3.011,15.283,3.011c4.987,0,9.307-0.547,12.956-1.642c3.65-1.094,6.691-2.311,9.125-3.65
			c2.432-1.337,4.288-2.555,5.565-3.65c1.278-1.095,2.038-1.642,2.281-1.642c0.243,0,0.486,0.122,0.73,0.365L414.964,129.508z
			 M415.511,86.989c0-5.778-0.821-10.904-2.464-15.375s-3.909-8.226-6.798-11.268c-2.89-3.041-6.281-5.352-10.174-6.934
			c-3.893-1.581-8.06-2.373-12.5-2.373c-5.353,0-10.173,0.853-14.461,2.555c-4.289,1.704-7.984,4.137-11.087,7.3
			c-3.102,3.163-5.581,6.95-7.436,11.36c-1.857,4.411-3.057,9.323-3.604,14.736H415.511z"/>
		<path fill="#FFFFFF" d="M446.44,76.861c1.278-4.38,2.797-8.287,4.562-11.725c1.764-3.436,3.878-6.341,6.342-8.714
			c2.464-2.372,5.293-4.166,8.486-5.383c3.193-1.216,6.827-1.825,10.904-1.825c1.764,0,3.572,0.137,5.429,0.411
			c1.854,0.274,3.513,0.807,4.973,1.597l-0.365,0.73c-0.122,0.183-0.228,0.351-0.32,0.502c-0.092,0.152-0.29,0.228-0.593,0.228
			c-0.305,0-0.7-0.076-1.185-0.228c-0.488-0.151-1.081-0.32-1.78-0.502c-0.7-0.182-1.551-0.349-2.554-0.502
			c-1.004-0.151-2.206-0.228-3.604-0.228c-4.014,0-7.573,0.639-10.676,1.916c-3.103,1.277-5.855,3.163-8.258,5.657
			c-2.403,2.495-4.532,5.627-6.386,9.398c-1.857,3.772-3.513,8.152-4.973,13.139v58.761h-2.19V50.674h0.547
			c0.851,0,1.278,0.487,1.278,1.46L446.44,76.861z"/>
	</g>
	<g>
		<path fill="#FFFFFF" d="M25.544,147.645h6.343v23.695h0.219c1.312-1.896,2.625-3.646,3.864-5.25l15.019-18.445h7.874
			l-17.79,20.852l19.175,28.288h-7.51l-16.185-24.132l-4.666,5.395v18.737h-6.343V147.645z"/>
		<path fill="#FFFFFF" d="M95.53,147.645v49.139h-6.343v-49.139H95.53z"/>
		<path fill="#FFFFFF" d="M130.741,196.784v-49.139h6.926l15.748,24.861c3.646,5.76,6.489,10.936,8.822,15.966l0.146-0.073
			c-0.583-6.562-0.729-12.54-0.729-20.195v-20.56h5.979v49.139h-6.416l-15.602-24.934c-3.427-5.468-6.708-11.082-9.187-16.404
			l-0.219,0.073c0.365,6.197,0.51,12.103,0.51,20.268v20.997H130.741z"/>
		<path fill="#FFFFFF" d="M228.285,173.746h-19.102v17.716h21.289v5.322H202.84v-49.139h26.538v5.322h-20.195v15.529h19.102V173.746
			z"/>
		<path fill="#FFFFFF" d="M273.335,153.04h-14.946v-5.395h36.381v5.395h-15.019v43.744h-6.416V153.04z"/>
		<path fill="#FFFFFF" d="M330.708,147.645v49.139h-6.343v-49.139H330.708z"/>
		<path fill="#FFFFFF" d="M400.258,195.18c-2.333,1.167-6.999,2.333-12.978,2.333c-13.853,0-24.277-8.749-24.277-24.861
			c0-15.383,10.425-25.809,25.663-25.809c6.124,0,9.988,1.313,11.665,2.187l-1.531,5.177c-2.406-1.167-5.833-2.042-9.915-2.042
			c-11.52,0-19.175,7.363-19.175,20.268c0,12.029,6.926,19.757,18.883,19.757c3.864,0,7.801-0.802,10.353-2.041L400.258,195.18z"/>
		<path fill="#FFFFFF" d="M431.457,189.056c2.844,1.75,6.999,3.208,11.373,3.208c6.489,0,10.28-3.427,10.28-8.384
			c0-4.593-2.625-7.218-9.259-9.77c-8.021-2.843-12.978-6.999-12.978-13.925c0-7.655,6.343-13.342,15.894-13.342
			c5.03,0,8.676,1.167,10.863,2.406l-1.75,5.176c-1.604-0.875-4.885-2.333-9.332-2.333c-6.708,0-9.26,4.01-9.26,7.364
			c0,4.593,2.989,6.853,9.77,9.478c8.312,3.208,12.54,7.218,12.54,14.435c0,7.583-5.613,14.144-17.206,14.144
			c-4.738,0-9.915-1.385-12.539-3.135L431.457,189.056z"/>
	</g>
	<g>
		<path fill="#8EC640" d="M25.759,205.26c1.604-0.268,3.706-0.497,6.381-0.497c3.286,0,5.693,0.764,7.221,2.14
			c1.414,1.223,2.254,3.095,2.254,5.388c0,2.331-0.688,4.165-1.987,5.502c-1.758,1.872-4.624,2.827-7.871,2.827
			c-0.993,0-1.91-0.038-2.674-0.229v10.316h-3.324V205.26z M29.083,217.678c0.726,0.19,1.643,0.267,2.751,0.267
			c4.012,0,6.457-1.948,6.457-5.502c0-3.4-2.407-5.043-6.075-5.043c-1.452,0-2.56,0.114-3.133,0.267V217.678z"/>
		<path fill="#8EC640" d="M65.875,218.633h-10.01v9.284h11.157v2.789H52.541v-25.752h13.908v2.789H55.865v8.139h10.01V218.633z"/>
		<path fill="#8EC640" d="M77.794,205.298c1.681-0.344,4.088-0.535,6.381-0.535c3.553,0,5.846,0.649,7.45,2.102
			c1.299,1.146,2.025,2.904,2.025,4.891c0,3.4-2.14,5.655-4.853,6.572v0.114c1.987,0.688,3.171,2.521,3.783,5.196
			c0.84,3.592,1.452,6.075,1.987,7.068h-3.439c-0.42-0.726-0.993-2.942-1.719-6.151c-0.764-3.554-2.14-4.891-5.158-5.005h-3.133
			v11.156h-3.324V205.298z M81.119,217.027h3.4c3.553,0,5.808-1.948,5.808-4.891c0-3.324-2.407-4.776-5.922-4.814
			c-1.604,0-2.751,0.153-3.286,0.306V217.027z"/>
		<path fill="#8EC640" d="M104.347,226.656c1.49,0.917,3.668,1.681,5.96,1.681c3.4,0,5.387-1.795,5.387-4.394
			c0-2.407-1.375-3.782-4.853-5.12c-4.203-1.49-6.801-3.668-6.801-7.298c0-4.012,3.324-6.992,8.329-6.992
			c2.637,0,4.547,0.611,5.693,1.261l-0.917,2.713c-0.841-0.458-2.56-1.223-4.891-1.223c-3.515,0-4.853,2.101-4.853,3.859
			c0,2.407,1.566,3.592,5.12,4.967c4.355,1.682,6.571,3.783,6.571,7.565c0,3.974-2.942,7.412-9.017,7.412
			c-2.484,0-5.196-0.726-6.572-1.643L104.347,226.656z"/>
		<path fill="#8EC640" d="M152.105,217.563c0,8.864-5.387,13.563-11.959,13.563c-6.801,0-11.577-5.272-11.577-13.066
			c0-8.177,5.082-13.526,11.959-13.526C147.558,204.534,152.105,209.921,152.105,217.563z M132.122,217.984
			c0,5.502,2.98,10.43,8.215,10.43c5.273,0,8.253-4.852,8.253-10.697c0-5.12-2.674-10.47-8.215-10.47
			C134.873,207.246,132.122,212.328,132.122,217.984z"/>
		<path fill="#8EC640" d="M162.877,230.706v-25.752h3.63l8.253,13.029c1.91,3.018,3.4,5.73,4.623,8.367l0.076-0.038
			c-0.306-3.438-0.382-6.572-0.382-10.584v-10.774h3.133v25.752h-3.362l-8.176-13.067c-1.796-2.865-3.515-5.808-4.814-8.597
			l-0.115,0.038c0.191,3.248,0.267,6.343,0.267,10.622v11.004H162.877z"/>
		<path fill="#8EC640" d="M198.637,222.607l-2.674,8.1h-3.439l8.75-25.752h4.012l8.788,25.752h-3.553l-2.751-8.1H198.637z
			 M207.082,220.008l-2.522-7.412c-0.573-1.682-0.955-3.21-1.337-4.7h-0.076c-0.382,1.528-0.803,3.095-1.299,4.661l-2.521,7.451
			H207.082z"/>
		<path fill="#8EC640" d="M224.312,204.954h3.324v22.963h11.004v2.789h-14.328V204.954z"/>
		<path fill="#8EC640" d="M266.68,207.781h-7.832v-2.827h19.065v2.827h-7.87v22.925h-3.363V207.781z"/>
		<path fill="#8EC640" d="M287.234,205.298c1.682-0.344,4.089-0.535,6.381-0.535c3.554,0,5.846,0.649,7.451,2.102
			c1.299,1.146,2.024,2.904,2.024,4.891c0,3.4-2.14,5.655-4.853,6.572v0.114c1.987,0.688,3.172,2.521,3.783,5.196
			c0.841,3.592,1.452,6.075,1.986,7.068h-3.438c-0.42-0.726-0.993-2.942-1.72-6.151c-0.764-3.554-2.139-4.891-5.157-5.005h-3.134
			v11.156h-3.324V205.298z M290.559,217.027h3.4c3.554,0,5.809-1.948,5.809-4.891c0-3.324-2.407-4.776-5.923-4.814
			c-1.604,0-2.751,0.153-3.286,0.306V217.027z"/>
		<path fill="#8EC640" d="M318.601,222.607l-2.675,8.1h-3.438l8.75-25.752h4.012l8.788,25.752h-3.554l-2.751-8.1H318.601z
			 M327.045,220.008l-2.521-7.412c-0.573-1.682-0.956-3.21-1.338-4.7h-0.076c-0.382,1.528-0.803,3.095-1.299,4.661l-2.522,7.451
			H327.045z"/>
		<path fill="#8EC640" d="M347.599,204.954v25.752h-3.323v-25.752H347.599z"/>
		<path fill="#8EC640" d="M359.861,230.706v-25.752h3.63l8.253,13.029c1.911,3.018,3.4,5.73,4.623,8.367l0.077-0.038
			c-0.306-3.438-0.382-6.572-0.382-10.584v-10.774h3.133v25.752h-3.362l-8.177-13.067c-1.796-2.865-3.516-5.808-4.814-8.597
			l-0.114,0.038c0.19,3.248,0.268,6.343,0.268,10.622v11.004H359.861z"/>
		<path fill="#8EC640" d="M394.781,204.954v25.752h-3.324v-25.752H394.781z"/>
		<path fill="#8EC640" d="M407.045,230.706v-25.752h3.63l8.253,13.029c1.911,3.018,3.4,5.73,4.623,8.367l0.077-0.038
			c-0.306-3.438-0.382-6.572-0.382-10.584v-10.774h3.133v25.752h-3.362l-8.177-13.067c-1.796-2.865-3.516-5.808-4.814-8.597
			l-0.114,0.038c0.19,3.248,0.268,6.343,0.268,10.622v11.004H407.045z"/>
		<path fill="#8EC640" d="M458.242,229.56c-1.49,0.535-4.433,1.414-7.909,1.414c-3.897,0-7.106-0.993-9.629-3.4
			c-2.216-2.14-3.591-5.578-3.591-9.59c0.038-7.681,5.311-13.297,13.945-13.297c2.98,0,5.311,0.649,6.419,1.185l-0.802,2.712
			c-1.376-0.611-3.096-1.108-5.693-1.108c-6.267,0-10.354,3.897-10.354,10.354c0,6.533,3.936,10.393,9.935,10.393
			c2.178,0,3.668-0.306,4.432-0.688v-7.68h-5.234v-2.675h8.482V229.56z"/>
	</g>
</g>
<g>
</g>
</svg>
